<?xml version="1.0" standalone="no"?>
<!DOCTYPE svg PUBLIC "-//W3C//DTD SVG 20010904//EN"
 "http://www.w3.org/TR/2001/REC-SVG-20010904/DTD/svg10.dtd">
<svg version="1.0" xmlns="http://www.w3.org/2000/svg"
 width="364.000000pt" height="364.000000pt" viewBox="0 0 364.000000 364.000000"
 preserveAspectRatio="xMidYMid meet">
<metadata>
Created by potrace 1.11, written by Peter Selinger 2001-2013
</metadata>
<g transform="translate(0.000000,364.000000) scale(0.100000,-0.100000)"
fill="#000000" stroke="none">
<path d="M1035 3589 c-60 -5 -135 -15 -165 -21 -68 -14 -219 -71 -268 -101
-21 -13 -49 -28 -64 -34 -45 -20 -150 -105 -226 -183 -60 -62 -84 -97 -138
-205 -41 -81 -72 -160 -84 -210 -11 -44 -32 -124 -49 -178 -34 -112 -40 -240
-21 -432 12 -129 21 -157 108 -330 75 -150 113 -212 171 -275 22 -25 41 -48
41 -52 0 -5 5 -8 11 -8 7 0 31 -17 55 -37 66 -59 152 -116 203 -136 118 -46
219 -77 254 -77 22 0 36 -4 32 -9 -17 -28 194 -26 325 4 226 50 227 51 395
150 22 13 64 45 93 71 l53 46 26 -23 c33 -31 56 -77 50 -99 -5 -21 27 -80 43
-80 15 0 110 -90 110 -104 0 -11 -49 -89 -72 -116 -8 -8 -20 -28 -28 -44 -17
-34 -155 -177 -187 -194 -19 -11 -22 -9 -32 20 -6 17 -11 42 -11 56 0 14 -11
44 -25 68 l-25 43 22 4 c21 4 21 4 -3 6 -14 0 -33 9 -43 19 -18 21 -102 64
-158 81 -103 33 -349 36 -471 7 -38 -9 -116 -35 -174 -57 -135 -53 -177 -91
-186 -170 -17 -138 1 -327 49 -514 41 -161 47 -177 86 -225 67 -81 123 -140
134 -140 6 0 17 -7 24 -15 17 -21 126 -71 180 -83 58 -13 196 -7 285 12 107
23 267 75 290 94 11 9 40 27 65 40 75 37 210 153 305 262 50 57 97 113 105
126 8 12 38 55 66 96 28 40 76 117 108 171 l58 98 207 -203 c114 -112 249
-241 300 -288 52 -47 128 -118 170 -158 43 -39 82 -72 87 -72 5 0 16 -13 25
-28 25 -44 82 -67 164 -67 57 0 76 4 103 23 17 13 32 20 32 15 0 -22 97 99
112 140 19 53 11 146 -17 194 -9 15 -71 69 -138 120 -67 51 -165 130 -218 175
-53 46 -163 140 -245 210 -82 69 -169 146 -194 171 -25 25 -79 73 -120 107
-41 34 -79 68 -83 76 -23 41 271 523 467 764 238 294 265 323 426 450 167 132
210 171 210 193 0 21 -38 51 -120 93 -85 44 -163 52 -198 21 -10 -9 -24 -17
-31 -17 -6 0 -14 -13 -17 -29 -4 -19 -29 -49 -72 -88 -36 -32 -111 -99 -166
-148 -56 -50 -155 -138 -221 -196 -236 -206 -504 -507 -569 -636 -15 -29 -28
-53 -30 -53 -3 0 -14 15 -25 33 -17 28 -29 35 -81 45 -40 9 -66 10 -78 3 -13
-7 -22 -3 -43 22 l-27 32 19 35 c10 19 26 62 35 95 8 33 22 78 29 100 7 22 16
74 19 115 3 41 13 104 21 140 18 80 34 270 30 353 -4 82 -58 272 -107 375 -45
92 -113 180 -227 292 -137 135 -207 182 -341 227 -47 15 -87 30 -90 33 -3 3
-27 6 -55 6 -27 1 -72 4 -100 7 -27 3 -99 1 -160 -4z m45 -111 c0 -15 -34 -8
-67 15 -37 25 -41 34 -15 39 17 4 82 -40 82 -54z m0 52 c0 -5 6 -10 13 -10 7
0 26 -13 42 -30 25 -26 26 -30 9 -30 -10 0 -34 18 -52 40 -18 22 -28 40 -23
40 6 0 11 -4 11 -10z m105 -35 c28 -25 43 -45 35 -45 -8 0 -35 21 -59 45 -58
58 -41 58 24 0z m63 -4 c54 -51 68 -74 30 -48 -28 18 -98 84 -98 91 0 15 20 2
68 -43z m83 -25 c38 -34 47 -47 30 -41 -12 4 -48 32 -80 62 -68 67 -29 51 50
-21z m-355 32 c43 -30 44 -33 23 -40 -18 -7 -29 -2 -56 24 -58 56 -37 66 33
16z m487 -93 c42 -31 42 -47 0 -20 -40 26 -153 128 -153 138 0 5 26 -13 58
-40 31 -27 74 -62 95 -78z m-544 81 c19 -20 28 -36 22 -40 -12 -8 -83 53 -75
65 9 15 19 10 53 -25z m599 -76 c61 -54 113 -104 117 -110 3 -5 11 -10 18 -10
6 0 -29 41 -78 90 -49 50 -85 90 -80 90 17 -1 60 -28 60 -37 0 -5 18 -25 39
-44 22 -19 68 -63 103 -98 34 -36 65 -62 69 -59 3 4 -22 34 -57 67 -70 69 -73
81 -5 22 45 -39 127 -128 93 -102 -9 8 -21 11 -24 7 -8 -8 46 -55 63 -56 18 0
67 -70 111 -155 35 -69 75 -194 98 -300 6 -29 5 -29 -34 15 -31 35 -42 58 -51
108 -7 34 -16 65 -21 68 -5 3 -21 29 -36 57 -52 104 -211 277 -320 349 -35 23
-63 47 -63 52 0 12 -92 104 -130 129 -23 16 -23 17 -4 17 12 0 67 -41 132
-100z m-643 58 c35 -32 36 -33 13 -38 -29 -7 -97 48 -76 62 20 12 23 10 63
-24z m-69 -14 c19 -15 34 -30 34 -35 0 -4 -18 -13 -40 -19 -67 -18 -154 20
-121 53 7 7 27 2 60 -16 27 -15 52 -23 55 -19 3 5 -10 17 -29 28 -23 12 -30
21 -22 26 19 12 26 10 63 -18z m-141 -44 c10 -11 27 -22 38 -26 15 -5 16 -8 6
-14 -23 -15 -96 31 -83 52 8 13 20 9 39 -12z m-21 -73 c-10 -6 -24 1 -46 23
-43 44 -19 57 27 16 28 -25 31 -32 19 -39z m-68 14 c18 -16 28 -31 22 -33 -9
-3 -68 47 -68 58 0 10 15 2 46 -25z m321 -3 c-3 -8 -6 -5 -6 6 -1 11 2 17 5
13 3 -3 4 -12 1 -19z m-57 -22 c0 -19 -4 -37 -9 -40 -4 -3 -8 12 -8 34 0 22 4
40 8 40 5 0 9 -15 9 -34z m-302 4 c31 -19 36 -40 10 -40 -14 0 -58 40 -58 52
0 13 12 10 48 -12z m251 3 c-1 -10 -5 -29 -9 -43 -7 -21 -8 -19 -9 18 -1 23 4
42 9 42 6 0 10 -8 9 -17z m-278 -72 c-10 -7 -23 0 -43 21 -22 24 -26 33 -16
39 8 6 23 -2 43 -22 24 -24 27 -31 16 -38z m210 -14 c-8 -8 -11 -1 -11 24 0
46 14 60 18 19 2 -18 -1 -37 -7 -43z m-50 -20 c-8 -8 -11 -1 -11 24 0 46 14
60 18 19 2 -18 -1 -37 -7 -43z m-219 42 c16 -12 27 -23 25 -26 -8 -7 -67 26
-67 37 0 15 9 12 42 -11z m175 -46 c-3 -10 -5 -2 -5 17 0 19 2 27 5 18 2 -10
2 -26 0 -35z m-209 21 c32 -15 40 -28 24 -38 -5 -3 -22 8 -37 24 -33 34 -31
36 13 14z m162 -24 c0 -20 -5 -30 -14 -30 -12 0 -13 6 -5 30 6 17 13 30 15 30
2 0 4 -13 4 -30z m587 11 c143 -26 268 -74 390 -149 143 -89 215 -167 296
-322 57 -107 67 -136 75 -202 17 -132 -23 -257 -140 -434 -91 -140 -280 -282
-418 -313 -64 -15 -80 -14 -81 7 0 13 -2 12 -9 -5 -5 -13 -18 -23 -28 -23 -20
0 -32 38 -32 110 0 19 -4 42 -10 50 -6 9 -9 -17 -9 -74 1 -60 -3 -91 -12 -96
-19 -12 -37 -1 -48 31 -11 32 -16 35 -27 17 -4 -7 -3 -8 4 -4 8 5 12 -2 12
-18 0 -19 -5 -26 -20 -26 -13 0 -20 7 -20 19 0 10 -7 24 -15 31 -8 7 -15 19
-15 27 0 10 -6 12 -20 8 -13 -4 -20 -2 -20 7 0 10 -3 9 -10 -2 -7 -12 -12 -12
-21 -3 -9 9 -16 10 -26 1 -10 -8 -17 -7 -28 8 -8 10 -15 14 -15 8 0 -18 -179
29 -225 58 -75 48 -223 228 -213 258 2 6 17 -3 33 -18 50 -45 118 -89 211
-138 49 -25 93 -50 98 -55 18 -17 29 -9 13 9 -10 10 -17 27 -17 38 0 10 -9 46
-20 79 l-20 60 4 -55 c2 -30 8 -63 12 -74 5 -14 3 -17 -7 -14 -8 3 -18 33 -25
80 -13 82 -39 147 -30 73 12 -91 17 -118 22 -126 3 -5 -1 -6 -9 -4 -13 6 -29
57 -43 138 -12 68 -24 50 -19 -30 l4 -78 -15 94 c-10 55 -20 88 -24 80 -5 -7
-6 -27 -3 -44 3 -18 1 -35 -5 -39 -6 -4 -14 18 -20 56 l-9 63 -8 -45 -8 -45
-16 57 c-17 61 -38 93 -27 41 4 -18 3 -34 -3 -38 -6 -3 -11 2 -11 12 -1 10 -7
32 -15 48 l-15 30 6 -32 c3 -20 1 -33 -5 -33 -5 0 -13 17 -16 38 -12 69 -23
82 -25 27 -1 -27 -4 -43 -7 -35 -9 28 -26 60 -33 60 -3 0 -5 -17 -3 -37 3 -32
2 -35 -7 -15 -5 12 -16 22 -24 22 -10 0 -17 14 -21 38 -10 57 -13 61 -14 15
-1 -30 -5 -43 -15 -43 -11 0 -17 20 -23 73 l-8 72 -5 -65 c-6 -69 -12 -61 -26
35 -6 36 -9 43 -12 25 -2 -14 -9 -28 -14 -31 -6 -4 -7 -16 -3 -28 3 -12 11
-19 16 -16 5 4 9 -5 9 -19 0 -19 -5 -26 -18 -26 -15 0 -23 17 -40 88 -18 73
-21 106 -16 188 8 147 25 193 112 303 40 52 83 100 95 106 12 6 51 27 87 47
89 50 274 120 335 128 112 13 225 10 332 -9z m-778 -24 l25 -32 -32 29 c-33
31 -37 36 -24 35 4 0 18 -14 31 -32z m1221 8 c0 -8 -4 -15 -10 -15 -5 0 -7 7
-4 15 4 8 8 15 10 15 2 0 4 -7 4 -15z m-1237 -33 c20 -18 22 -32 4 -32 -17 0
-59 44 -51 53 8 7 20 1 47 -21z m119 -24 c-8 -8 -9 -4 -5 13 4 13 8 18 11 10
2 -7 -1 -18 -6 -23z m-165 0 c41 -39 25 -53 -21 -17 -14 11 -24 25 -21 30 9
13 16 11 42 -13z m-28 -38 c14 -12 21 -26 17 -36 -5 -13 -10 -13 -36 6 -30 22
-35 31 -23 43 10 10 16 8 42 -13z m-10 -67 c2 -1 1 -10 -3 -19 -5 -14 -10 -12
-31 12 -35 41 -33 65 3 33 15 -13 29 -25 31 -26z m-48 -25 c29 -32 23 -42 -11
-18 -17 12 -28 26 -25 31 9 14 16 11 36 -13z m-16 -48 c10 -11 14 -20 9 -20
-12 1 -44 25 -44 34 0 12 17 6 35 -14z m-7 -33 c15 -12 16 -27 0 -27 -13 0
-48 29 -48 41 0 9 28 1 48 -14z m-30 -42 c12 -13 17 -27 12 -30 -12 -8 -52 33
-45 45 8 13 8 13 33 -15z m-8 -56 c0 -4 -7 -6 -15 -3 -8 4 -15 10 -15 15 0 4
7 6 15 3 8 -4 15 -10 15 -15z m-16 -25 c9 -3 16 -18 16 -32 0 -24 0 -25 -20
-7 -11 10 -20 24 -20 32 0 15 2 15 24 7z m3394 -56 c31 -19 35 -38 7 -38 -16
0 -135 58 -135 66 0 12 98 -10 128 -28z m-3398 -67 c-1 -13 -3 -13 -15 3 -19
26 -19 42 0 26 8 -7 15 -20 15 -29z m1855 -1 c10 -11 24 -20 31 -20 13 0 13
-9 5 -134 -2 -40 -41 21 -52 81 -6 32 -12 66 -15 76 -7 23 9 22 31 -3z m-1876
-14 c6 -7 10 -39 9 -72 -4 -97 14 -190 35 -177 6 4 8 0 4 -10 -6 -16 18 -104
34 -122 5 -5 9 -15 9 -22 0 -7 12 -38 26 -68 68 -149 208 -304 333 -368 36
-19 95 -49 131 -68 36 -19 72 -34 80 -35 90 -8 166 -28 198 -52 l36 -27 -68
-3 c-56 -2 -70 0 -81 15 -10 13 -17 15 -25 7 -15 -15 -66 -4 -158 36 -211 90
-345 213 -483 448 -60 102 -64 111 -85 205 -18 82 -29 327 -16 327 5 0 15 -6
21 -14z m1900 -175 c5 -9 6 -22 4 -29 -7 -18 -43 15 -43 39 0 22 26 15 39 -10z
m-2 -87 c-10 -10 -47 26 -47 45 0 11 7 8 27 -11 15 -15 24 -31 20 -34z m-17
-51 c0 -11 -5 -10 -24 3 -15 9 -23 21 -19 30 5 13 8 12 24 -2 11 -9 19 -23 19
-31z m-1730 -18 c0 -8 -2 -15 -4 -15 -2 0 -6 7 -10 15 -3 8 -1 15 4 15 6 0 10
-7 10 -15z m1705 -15 c18 -20 15 -38 -4 -25 -15 9 -33 45 -23 45 5 0 17 -9 27
-20z m-1634 -30 c5 0 9 -7 9 -16 0 -14 -3 -14 -15 -4 -8 7 -14 22 -14 34 1 17
2 17 6 4 2 -10 9 -18 14 -18z m2524 -72 c-48 -51 -105 -119 -128 -150 -22 -32
-44 -58 -49 -58 -5 0 -7 -4 -3 -9 3 -5 -8 -19 -24 -30 -16 -12 -32 -35 -36
-51 -4 -17 -10 -30 -15 -30 -12 0 -49 -66 -54 -96 -8 -42 -34 -74 -61 -74 -66
0 3 134 162 315 10 11 42 49 72 84 44 51 204 191 219 191 2 0 -35 -42 -83 -92z
m-2561 66 c3 -8 2 -12 -4 -9 -6 3 -10 10 -10 16 0 14 7 11 14 -7z m1666 -36
c0 -5 -9 -4 -20 2 -11 6 -20 18 -20 27 0 14 2 14 20 -2 11 -10 20 -22 20 -27z
m-48 -92 c3 -5 4 -15 1 -23 -8 -20 -43 13 -43 40 0 17 2 18 18 6 9 -8 20 -18
24 -23z m-26 -63 c-6 -6 -46 30 -46 41 0 5 11 -1 25 -14 14 -13 23 -25 21 -27z
m-18 -33 c3 -8 -5 -6 -21 6 -15 10 -27 23 -27 28 0 12 43 -18 48 -34z m-1745
-12 c41 -70 81 -115 100 -112 9 1 17 -2 17 -8 0 -5 14 -23 31 -39 18 -17 28
-33 23 -41 -5 -8 -20 2 -47 33 -51 57 -37 31 25 -48 27 -35 84 -94 126 -133
86 -80 84 -92 -4 -24 -88 68 -222 198 -176 170 7 -4 -7 24 -32 62 -42 67 -96
165 -96 177 0 13 10 2 33 -37z m1706 -7 c17 -13 20 -20 12 -26 -12 -7 -51 21
-51 37 0 13 13 9 39 -11z m-1634 -47 c16 -20 23 -35 16 -33 -12 4 -57 69 -48
69 2 0 17 -16 32 -36z m1600 6 c14 -16 16 -23 7 -32 -9 -9 -16 -7 -32 7 -23
21 -26 45 -7 45 8 0 22 -9 32 -20z m-46 -41 c18 -15 21 -23 13 -31 -13 -13
-52 16 -52 39 0 18 11 16 39 -8z m-1619 -9 c6 -11 8 -20 6 -20 -3 0 -10 9 -16
20 -6 11 -8 20 -6 20 3 0 10 -9 16 -20z m155 -40 l30 -35 -28 25 c-16 14 -33
34 -39 45 -11 21 -10 20 37 -35z m1428 -1 c26 -30 15 -34 -13 -4 -13 14 -19
25 -14 25 5 0 18 -9 27 -21z m-24 -53 c-10 -12 -49 21 -49 41 0 11 8 8 29 -9
17 -13 25 -27 20 -32z m-1344 -6 c10 -11 16 -20 13 -20 -3 0 -13 9 -23 20 -10
11 -16 20 -13 20 3 0 13 -9 23 -20z m1290 -5 c19 -16 25 -24 15 -25 -19 0 -60
28 -60 41 0 15 13 10 45 -16z m-1401 -54 c40 -43 118 -110 239 -204 90 -70
100 -84 32 -47 -71 39 -125 79 -174 132 -20 21 -40 38 -46 38 -5 0 13 -24 41
-52 73 -77 104 -116 79 -98 -37 26 -115 104 -115 115 0 6 -14 24 -32 41 l-32
29 18 -30 c10 -16 30 -42 44 -57 14 -15 23 -30 20 -33 -7 -7 -55 49 -82 96
-10 17 -14 29 -7 25 6 -4 11 -1 11 6 0 7 12 0 25 -15 14 -15 25 -24 25 -19 0
16 -45 50 -63 47 -9 -2 -14 1 -11 7 3 5 -1 17 -9 26 -8 9 -20 28 -27 42 -13
24 -12 24 5 10 10 -8 37 -35 59 -59z m516 24 c0 -5 -5 -3 -10 5 -5 8 -10 20
-10 25 0 6 5 3 10 -5 5 -8 10 -19 10 -25z m840 -5 c14 -11 21 -20 17 -20 -11
0 -67 29 -67 35 0 11 27 3 50 -15z m304 -22 c25 -22 46 -45 46 -49 0 -15 -92
-94 -105 -91 -7 1 -18 -14 -24 -35 l-10 -38 2 48 c1 26 -1 47 -5 47 -4 0 -14
-21 -22 -47 l-15 -48 2 55 c1 39 -2 54 -10 53 -7 -2 -13 4 -13 12 0 32 -20 13
-34 -32 -20 -65 -20 -36 0 41 18 68 26 81 69 108 45 27 69 22 119 -24z m-1455
-61 c2 -13 -69 46 -86 73 -11 16 1 9 34 -20 28 -25 51 -49 52 -53z m365 77 c3
-8 2 -12 -4 -9 -6 3 -10 10 -10 16 0 14 7 11 14 -7z m98 -19 c6 -28 -6 -34
-16 -9 -8 22 -7 34 3 34 5 0 11 -11 13 -25z m133 4 c4 -11 4 -23 0 -27 -7 -7
-25 17 -25 36 0 20 18 14 25 -9z m519 -12 c11 -8 15 -17 9 -20 -12 -7 -76 37
-67 46 7 7 26 -2 58 -26z m-610 7 c3 -8 2 -12 -4 -9 -6 3 -10 10 -10 16 0 14
7 11 14 -7z m-513 -11 c13 -16 12 -17 -3 -4 -10 7 -18 15 -18 17 0 8 8 3 21
-13z m1052 -8 c40 -21 48 -35 19 -35 -10 0 -31 14 -48 32 -16 17 -24 29 -19
27 6 -3 27 -14 48 -24z m-48 -30 c17 -13 24 -24 17 -25 -7 0 -25 11 -40 25
-35 32 -16 33 23 0z m-49 -17 l29 -33 -32 29 c-31 28 -38 36 -30 36 2 0 16
-15 33 -32z m-975 5 c13 -16 12 -17 -3 -4 -10 7 -18 15 -18 17 0 8 8 3 21 -13z
m895 -25 l29 -33 -35 30 c-19 17 -37 31 -39 33 -2 1 0 2 5 2 6 0 23 -15 40
-32z m44 12 c14 -10 22 -21 19 -25 -4 -3 -20 5 -35 19 -34 30 -21 35 16 6z
m-875 -10 c10 -11 16 -20 13 -20 -3 0 -13 9 -23 20 -10 11 -16 20 -13 20 3 0
13 -9 23 -20z m802 -4 c40 -35 25 -40 -17 -5 -19 15 -30 29 -23 29 7 0 25 -11
40 -24z m-260 -8 c11 -13 29 -28 39 -35 18 -11 18 -12 -4 -12 -27 -1 -104 48
-96 60 10 16 40 9 61 -13z m85 -8 l33 -29 -25 -1 c-14 0 -41 13 -60 30 l-35
29 27 1 c17 0 40 -12 60 -30z m73 3 c24 -26 24 -28 6 -31 -19 -3 -71 33 -71
50 0 18 41 6 65 -19z m75 -19 c0 -14 -28 1 -45 24 l-19 26 32 -22 c18 -13 32
-25 32 -28z m487 -16 c-3 -8 -6 -5 -6 6 -1 11 2 17 5 13 3 -3 4 -12 1 -19z
m277 -96 c60 -57 76 -77 71 -92 -4 -11 -10 -20 -14 -20 -19 0 -181 138 -181
154 0 17 22 37 36 34 7 -2 46 -36 88 -76z m-217 -4 c-3 -8 -6 -5 -6 6 -1 11 2
17 5 13 3 -3 4 -12 1 -19z m444 -116 c-7 -2 -18 1 -23 6 -8 8 -4 9 13 5 13 -4
18 -8 10 -11z m-36 -42 c3 -6 -1 -7 -9 -4 -18 7 -21 14 -7 14 6 0 13 -4 16
-10z m149 -12 c-3 -5 -12 -4 -20 3 -19 16 -18 18 6 12 11 -3 17 -9 14 -15z
m-33 -8 l24 -21 -32 16 c-32 15 -42 25 -24 25 5 0 19 -9 32 -20z m-48 -37 c29
-14 47 -28 41 -30 -9 -3 -95 37 -113 53 -15 13 28 0 72 -23z m-103 1 c0 -9 -5
-14 -12 -12 -18 6 -21 28 -4 28 9 0 16 -7 16 -16z m58 -14 c48 -25 77 -48 70
-55 -10 -10 -118 47 -118 61 0 18 4 18 48 -6z m-78 -20 c0 -5 -4 -10 -9 -10
-6 0 -13 5 -16 10 -3 6 1 10 9 10 9 0 16 -4 16 -10z m80 -32 c30 -17 49 -33
42 -36 -7 -2 -31 8 -52 22 -22 14 -44 26 -50 26 -5 0 -10 5 -10 10 0 16 11 12
70 -22z m-150 8 c0 -3 -4 -8 -10 -11 -5 -3 -10 -1 -10 4 0 6 5 11 10 11 6 0
10 -2 10 -4z m46 -7 c10 -17 -13 -36 -27 -22 -12 12 -4 33 11 33 5 0 12 -5 16
-11z m134 -74 c0 -21 -13 -19 -73 11 -63 32 -59 28 -51 47 5 14 14 12 65 -13
32 -17 59 -37 59 -45z m-165 25 c3 -5 -1 -10 -9 -10 -9 0 -16 5 -16 10 0 6 4
10 9 10 6 0 13 -4 16 -10z m107 -46 c22 -14 38 -27 36 -29 -4 -4 -118 51 -127
62 -14 14 54 -10 91 -33z m-127 16 c3 -5 2 -10 -4 -10 -5 0 -13 5 -16 10 -3 6
-2 10 4 10 5 0 13 -4 16 -10z m86 -37 c27 -16 49 -34 49 -41 0 -7 -9 -30 -20
-52 -11 -22 -20 -47 -20 -57 0 -21 -36 -95 -88 -179 -49 -82 -67 -101 -103
-108 -20 -4 -28 -10 -23 -17 5 -9 -1 -10 -19 -5 -14 3 -29 2 -32 -4 -9 -15
-64 -12 -81 4 -18 18 -18 21 3 41 16 16 15 18 -8 37 l-24 19 33 -16 c19 -9 37
-14 40 -10 8 8 -49 54 -67 55 -13 0 -13 2 -2 13 11 10 14 9 18 -1 3 -6 9 -10
14 -7 4 3 22 -1 38 -10 18 -9 32 -11 36 -5 3 5 -8 16 -25 25 -17 9 -28 20 -25
25 3 6 -1 7 -9 4 -9 -3 -16 -1 -16 5 0 16 21 14 63 -8 25 -13 39 -15 44 -8 4
6 2 12 -4 14 -6 2 -19 10 -29 18 -15 11 -17 16 -6 26 10 11 18 10 41 -4 35
-21 41 -21 41 -4 0 8 -11 19 -25 25 -14 6 -25 16 -25 22 0 15 15 12 43 -10 17
-14 28 -17 32 -10 4 6 5 13 4 14 -2 2 -22 15 -44 29 -50 34 -38 35 28 2 34
-17 54 -22 60 -16 7 7 -10 19 -51 38 -60 27 -77 43 -47 43 8 0 15 -5 15 -12 0
-6 3 -8 7 -5 3 4 26 -4 49 -18 24 -14 45 -21 49 -16 3 6 -13 20 -35 33 -22 13
-40 27 -40 31 0 5 21 -3 46 -17 52 -29 54 -30 54 -17 0 5 -17 20 -37 32 -21
13 -41 27 -44 32 -3 5 -9 8 -13 8 -23 -3 -29 0 -19 10 9 9 80 -22 120 -53 7
-5 14 -5 17 1 3 5 -8 22 -26 36 l-33 27 37 -20 c33 -19 48 -19 48 -2 0 4 -19
15 -42 26 -24 10 -46 22 -49 27 -3 5 -9 8 -13 8 -24 -3 -29 0 -19 10 8 8 30
-1 78 -30 37 -23 71 -39 74 -35 7 7 -37 44 -53 44 -6 0 -17 9 -24 20 -17 28 0
26 59 -7z m331 -29 c29 -31 109 -103 178 -159 69 -57 159 -135 200 -174 41
-40 135 -122 207 -184 139 -117 152 -137 114 -171 -25 -23 -48 -11 -98 51 -69
87 -156 175 -338 343 -44 41 -91 85 -105 98 -80 79 -201 162 -235 162 -8 0
-15 2 -15 5 0 8 32 85 36 85 1 0 27 -25 56 -56z m-1232 22 c58 -8 121 -16 140
-16 35 -1 100 -46 100 -70 0 -5 6 -10 14 -10 40 0 60 -107 32 -174 -31 -75
-207 -188 -321 -205 -101 -16 -274 -7 -355 19 -86 27 -110 40 -163 89 -72 67
-94 140 -61 203 23 44 36 56 55 51 10 -3 26 0 36 6 16 9 16 10 -6 11 -43 0
-15 11 38 14 61 4 73 12 40 24 l-24 9 25 8 c24 8 105 8 146 0 10 -2 30 -4 44
-5 16 -1 5 -7 -29 -15 -30 -7 -60 -11 -67 -8 -6 2 -19 -4 -28 -13 -10 -9 -30
-17 -46 -18 -16 -1 -28 -3 -27 -6 3 -9 -36 -65 -57 -82 -12 -10 -16 -18 -10
-18 6 0 12 -12 12 -26 0 -31 35 -64 102 -97 41 -20 60 -22 220 -22 147 0 182
3 220 18 25 11 60 22 78 25 18 4 33 12 33 17 0 6 9 13 19 17 13 5 18 13 13 24
-4 10 0 21 9 28 17 13 20 48 4 58 -7 5 -4 8 7 8 9 0 17 5 17 10 0 6 -9 10 -19
10 -10 0 -21 7 -24 14 -5 12 4 14 46 11 l52 -4 -50 13 -50 13 35 5 35 5 -40 1
c-22 1 -80 9 -130 17 -49 8 -151 19 -225 25 -74 5 -148 14 -165 19 l-30 9 34
1 c19 1 97 -4 173 -10 183 -14 210 -6 35 11 -82 8 -133 16 -125 21 16 11 101
5 238 -15z m1084 -21 c-4 -8 -10 -13 -15 -10 -4 3 -6 12 -3 20 4 8 10 13 15
10 4 -3 6 -12 3 -20z m-24 -41 c0 -8 -4 -12 -10 -9 -5 3 -10 10 -10 16 0 5 5
9 10 9 6 0 10 -7 10 -16z m-330 -24 c0 -5 -4 -10 -9 -10 -6 0 -13 5 -16 10 -3
6 1 10 9 10 9 0 16 -4 16 -10z m310 -10 c0 -5 -4 -10 -10 -10 -5 0 -10 5 -10
10 0 6 5 10 10 10 6 0 10 -4 10 -10z m-40 -75 c0 -8 -4 -15 -10 -15 -5 0 -10
7 -10 15 0 8 5 15 10 15 6 0 10 -7 10 -15z m-340 -15 c0 -5 -7 -7 -15 -4 -8 4
-15 8 -15 10 0 2 7 4 15 4 8 0 15 -4 15 -10z m-41 -19 c8 -5 11 -16 8 -26 -4
-9 -11 -14 -16 -10 -6 3 -7 13 -4 23 6 15 5 15 -10 3 -19 -15 -33 -9 -22 8 8
13 25 14 44 2z m281 -135 c0 -3 -4 -8 -10 -11 -5 -3 -10 -1 -10 4 0 6 5 11 10
11 6 0 10 -2 10 -4z m-390 -36 c0 -5 -2 -10 -4 -10 -3 0 -8 5 -11 10 -3 6 -1
10 4 10 6 0 11 -4 11 -10z m35 -20 c3 -6 -1 -7 -9 -4 -18 7 -21 14 -7 14 6 0
13 -4 16 -10z m-217 -98 c-5 -14 -88 -85 -88 -76 0 11 72 84 83 84 5 0 7 -4 5
-8z m504 -14 c-7 -7 -12 -8 -12 -2 0 14 12 26 19 19 2 -3 -1 -11 -7 -17z
m-322 2 c8 -5 11 -10 5 -10 -5 0 -17 5 -25 10 -8 5 -10 10 -5 10 6 0 17 -5 25
-10z m-142 -12 c-3 -7 -13 -15 -24 -17 -16 -3 -17 -1 -5 13 16 19 34 21 29 4z
m148 -24 c30 -20 53 -39 50 -41 -2 -2 -28 12 -58 33 -63 44 -63 44 -54 44 4 0
32 -16 62 -36z m-1068 -100 c81 -184 159 -278 276 -333 95 -45 117 -51 211
-57 38 -2 88 -6 110 -9 22 -2 56 -4 75 -4 97 -2 -78 -45 -227 -56 -76 -6 -86
-4 -158 26 -66 27 -91 45 -164 118 -78 77 -90 94 -117 166 -27 70 -74 243 -74
270 0 19 30 -34 68 -121z m1137 77 c-3 -3 -18 8 -33 23 l-27 29 32 -23 c18
-13 30 -26 28 -29z m-149 10 c11 -10 33 -25 49 -33 15 -8 23 -18 18 -21 -6 -4
-22 2 -36 13 -14 11 -30 20 -36 20 -6 0 -11 5 -11 10 0 6 -7 10 -15 10 -8 0
-15 5 -15 10 0 16 25 11 46 -9z m-106 -1 c0 -5 -7 -10 -15 -10 -8 0 -15 -4
-15 -10 0 -5 -5 -10 -12 -10 -6 0 -3 9 7 20 20 22 35 26 35 10z m45 -20 c3 -5
-3 -10 -15 -10 -12 0 -18 5 -15 10 3 6 10 10 15 10 5 0 12 -4 15 -10z m30 -20
c-3 -5 -11 -10 -16 -10 -6 0 -7 5 -4 10 3 6 11 10 16 10 6 0 7 -4 4 -10z
m-140 -10 c3 -5 2 -10 -4 -10 -5 0 -13 5 -16 10 -3 6 -2 10 4 10 5 0 13 -4 16
-10z m78 3 c-7 -2 -19 -2 -25 0 -7 3 -2 5 12 5 14 0 19 -2 13 -5z m113 -17
c10 -8 16 -17 13 -21 -8 -7 -59 15 -59 27 0 13 24 10 46 -6z m-151 -6 c3 -5 2
-10 -4 -10 -5 0 -13 5 -16 10 -3 6 -2 10 4 10 5 0 13 -4 16 -10z m235 0 c0 -5
-4 -10 -9 -10 -6 0 -13 5 -16 10 -3 6 1 10 9 10 9 0 16 -4 16 -10z m-40 -31
c0 -6 -4 -7 -10 -4 -5 3 -10 11 -10 16 0 6 5 7 10 4 6 -3 10 -11 10 -16z m-65
1 c3 -5 2 -10 -4 -10 -5 0 -13 5 -16 10 -3 6 -2 10 4 10 5 0 13 -4 16 -10z
m-15 -30 c0 -5 -2 -10 -4 -10 -3 0 -8 5 -11 10 -3 6 -1 10 4 10 6 0 11 -4 11
-10z m1690 -92 c-7 -51 -17 -100 -22 -108 -6 -10 -8 -2 -4 25 3 22 8 67 12
100 7 70 12 90 21 82 3 -4 0 -48 -7 -99z m-1466 84 c3 -5 -1 -9 -9 -9 -8 0
-15 4 -15 9 0 4 4 8 9 8 6 0 12 -4 15 -8z m1427 -45 c-4 -67 -30 -229 -37
-236 -11 -10 3 212 16 252 14 48 25 40 21 -16z m84 -69 c-7 -122 -12 -148 -26
-148 -11 0 -10 15 17 203 11 79 15 53 9 -55z m-146 -8 c-5 -46 -9 -105 -8
-130 2 -64 0 -80 -11 -80 -20 0 -21 50 -5 166 9 65 19 122 22 127 12 19 12 -4
2 -83z m-1559 70 c0 -5 -7 -10 -16 -10 -8 0 -12 5 -9 10 3 6 10 10 16 10 5 0
9 -4 9 -10z m-155 -10 c3 -5 1 -10 -4 -10 -6 0 -11 5 -11 10 0 6 2 10 4 10 3
0 8 -4 11 -10z m1902 -37 c-3 -10 -5 -2 -5 17 0 19 2 27 5 18 2 -10 2 -26 0
-35z m-1967 17 c0 -5 -2 -10 -4 -10 -3 0 -8 5 -11 10 -3 6 -1 10 4 10 6 0 11
-4 11 -10z m120 -5 c0 -12 -19 -12 -23 0 -4 9 -1 12 9 8 7 -3 14 -7 14 -8z
m65 5 c3 -5 -1 -10 -9 -10 -9 0 -16 5 -16 10 0 6 4 10 9 10 6 0 13 -4 16 -10z
m72 4 c-3 -3 -12 -4 -19 -1 -8 3 -5 6 6 6 11 1 17 -2 13 -5z m1477 -51 c-8
-82 -22 -175 -29 -181 -3 -3 -10 -1 -16 5 -19 19 24 233 47 233 2 0 1 -26 -2
-57z m-1684 33 c0 -11 -19 -15 -25 -6 -3 5 1 10 9 10 9 0 16 -2 16 -4z m170
-6 c0 -5 -5 -10 -11 -10 -5 0 -7 5 -4 10 3 6 8 10 11 10 2 0 4 -4 4 -10z m-70
-10 c0 -5 -2 -10 -4 -10 -3 0 -8 5 -11 10 -3 6 -1 10 4 10 6 0 11 -4 11 -10z
m-65 -10 c-3 -5 -11 -10 -16 -10 -6 0 -7 5 -4 10 3 6 11 10 16 10 6 0 7 -4 4
-10z m165 0 c0 -5 -4 -10 -10 -10 -5 0 -10 5 -10 10 0 6 5 10 10 10 6 0 10 -4
10 -10z m1436 -7 c-3 -10 -10 -46 -17 -80 -15 -80 -34 -73 -25 10 6 58 18 87
38 87 5 0 7 -8 4 -17z m-1676 -3 c0 -5 -4 -10 -10 -10 -5 0 -10 5 -10 10 0 6
5 10 10 10 6 0 10 -4 10 -10z m180 0 c0 -5 -4 -10 -10 -10 -5 0 -10 5 -10 10
0 6 5 10 10 10 6 0 10 -4 10 -10z m1780 -21 c0 -17 -4 -28 -10 -24 -5 3 -10
17 -10 31 0 13 5 24 10 24 6 0 10 -14 10 -31z m-2130 11 c0 -5 -5 -10 -11 -10
-5 0 -7 5 -4 10 3 6 8 10 11 10 2 0 4 -4 4 -10z m280 0 c0 -5 -4 -10 -10 -10
-5 0 -10 5 -10 10 0 6 5 10 10 10 6 0 10 -4 10 -10z m-240 -10 c0 -5 -5 -10
-11 -10 -5 0 -7 5 -4 10 3 6 8 10 11 10 2 0 4 -4 4 -10z m170 6 c0 -3 -4 -8
-10 -11 -5 -3 -10 -1 -10 4 0 6 5 11 10 11 6 0 10 -2 10 -4z m170 0 c0 -3 -4
-8 -10 -11 -5 -3 -10 -1 -10 4 0 6 5 11 10 11 6 0 10 -2 10 -4z m-130 -20 c0
-3 -4 -8 -10 -11 -5 -3 -10 -1 -10 4 0 6 5 11 10 11 6 0 10 -2 10 -4z m-140
-26 c0 -5 -4 -10 -10 -10 -5 0 -10 5 -10 10 0 6 5 10 10 10 6 0 10 -4 10 -10z
m180 6 c0 -11 -19 -15 -25 -6 -3 5 1 10 9 10 9 0 16 -2 16 -4z m20 -16 c0 -5
-5 -10 -11 -10 -5 0 -7 5 -4 10 3 6 8 10 11 10 2 0 4 -4 4 -10z m-120 -24 c0
-2 -7 -6 -15 -10 -8 -3 -15 -1 -15 4 0 6 7 10 15 10 8 0 15 -2 15 -4z m25 -16
c-3 -5 -11 -10 -16 -10 -6 0 -7 5 -4 10 3 6 11 10 16 10 6 0 7 -4 4 -10z m-15
-45 c0 -12 -19 -12 -23 0 -4 9 -1 12 9 8 7 -3 14 -7 14 -8z m-75 -65 c-3 -5
-11 -10 -16 -10 -6 0 -7 5 -4 10 3 6 11 10 16 10 6 0 7 -4 4 -10z"/>
<path d="M422 2410 c0 -14 2 -19 5 -12 2 6 2 18 0 25 -3 6 -5 1 -5 -13z"/>
<path d="M825 2139 c3 -19 14 -64 23 -101 l16 -68 53 -15 c29 -8 56 -22 60
-29 10 -18 82 -48 95 -40 5 3 2 11 -7 18 -9 6 -16 16 -15 21 2 6 2 28 1 50
l-1 40 -19 -31 c-10 -17 -21 -40 -23 -50 -3 -10 -8 4 -12 31 -11 79 -16 95
-27 95 -6 0 -7 -18 -3 -50 6 -42 4 -50 -10 -50 -12 0 -16 10 -16 45 0 27 -5
45 -11 45 -8 0 -10 -15 -5 -46 3 -25 2 -43 -3 -40 -5 4 -12 30 -16 59 -10 81
-16 107 -25 107 -5 0 -7 -6 -5 -12 9 -28 14 -118 6 -118 -4 0 -16 36 -25 80
-10 44 -22 83 -28 86 -7 4 -8 -5 -3 -27z"/>
<path d="M922 2080 c0 -14 2 -19 5 -12 2 6 2 18 0 25 -3 6 -5 1 -5 -13z"/>
<path d="M1111 1934 c0 -11 3 -14 6 -6 3 7 2 16 -1 19 -3 4 -6 -2 -5 -13z"/>
<path d="M1149 1898 c-3 -21 1 -48 8 -60 12 -22 12 -21 12 12 -1 19 -4 46 -8
60 -7 23 -8 22 -12 -12z"/>
<path d="M1107 1893 c-11 -10 -8 -43 3 -43 6 0 10 11 10 25 0 26 -2 29 -13 18z"/>
<path d="M1325 1135 c25 -9 107 -12 94 -4 -8 5 -34 8 -59 8 -25 0 -40 -2 -35
-4z"/>
<path d="M720 1029 c0 -5 5 -7 10 -4 6 3 10 8 10 11 0 2 -4 4 -10 4 -5 0 -10
-5 -10 -11z"/>
<path d="M765 1030 c-3 -5 -1 -10 4 -10 6 0 11 5 11 10 0 6 -2 10 -4 10 -3 0
-8 -4 -11 -10z"/>
<path d="M1510 1020 c0 -12 28 -21 35 -11 2 5 -4 11 -15 14 -11 3 -20 2 -20
-3z"/>
<path d="M1557 1000 c-3 -11 -1 -20 4 -20 5 0 9 9 9 20 0 11 -2 20 -4 20 -2 0
-6 -9 -9 -20z"/>
<path d="M740 989 c0 -5 5 -7 10 -4 6 3 10 8 10 11 0 2 -4 4 -10 4 -5 0 -10
-5 -10 -11z"/>
<path d="M1510 990 c0 -5 5 -10 10 -10 6 0 10 5 10 10 0 6 -4 10 -10 10 -5 0
-10 -4 -10 -10z"/>
<path d="M1540 949 c0 -5 5 -7 10 -4 6 3 10 8 10 11 0 2 -4 4 -10 4 -5 0 -10
-5 -10 -11z"/>
</g>
</svg>
